<svg xmlns="http://www.w3.org/2000/svg" xmlns:xlink="http://www.w3.org/1999/xlink" version="1.1" baseProfile="full" viewBox="0 0 200 200" width="96" height="96"><SCRIPT xmlns="" id="allow-copy_script">(function agent() {
    let unlock = false
    document.addEventListener('allow_copy', (event) =&gt; {
      unlock = event.detail.unlock
    })

    const copyEvents = [
      'copy',
      'cut',
      'contextmenu',
      'selectstart',
      'mousedown',
      'mouseup',
      'mousemove',
      'keydown',
      'keypress',
      'keyup',
    ]
    const rejectOtherHandlers = (e) =&gt; {
      if (unlock) {
        e.stopPropagation()
        if (e.stopImmediatePropagation) e.stopImmediatePropagation()
      }
    }
    copyEvents.forEach((evt) =&gt; {
      document.documentElement.addEventListener(evt, rejectOtherHandlers, {
        capture: true,
      })
    })
  })()</SCRIPT><path d="M 25.2,19.6 L 28.2,20.6 31.2,21.5 34,22.6 36.8,23.9 39.3,25.4 41.8,27 44.1,28.9 46.2,31 48.2,33.2 50,35.6 39.2,41 38.6,38.9 37.8,36.9 36.8,34.9 35.7,32.9 34.3,30.9 32.8,28.9 31.1,26.9 29.1,24.9 27,22.8 24.5,21.2" fill="black"/><path d="M 50,35.6 L 50.2,40.1 47.3,43.6 42.7,43.9 39.2,41" fill="black"/><path d="M 14.2,65.5 L 17.3,66.6 20.5,67.5 23.4,68.5 26.2,69.8 28.9,71.3 31.3,73 33.6,74.9 35.7,77 37.6,79.3 39.3,81.8 28.3,86.6 27.8,84.7 27.1,82.7 26.3,80.8 25.2,78.9 23.9,76.9 22.3,74.9 20.5,72.9 18.5,70.9 16.2,68.8 13.5,67.2" fill="black"/><path d="M 39.3,81.8 L 39.3,86.4 36.1,89.7 31.6,89.7 28.3,86.6" fill="black"/><path d="M 14.2,132.5 L 18.9,133.7 23.2,136 27,139.2 30.4,143.2 33.2,148 35.4,153.4 37.1,159.5 38.3,166.1 38.9,173.4 39.1,181.2 27.1,180.7 27.5,173.5 27.6,167 27.2,161.1 26.4,155.8 25.3,151.1 23.8,147 21.9,143.3 19.6,140 16.9,137 13.5,134.2" fill="black"/><path d="M 39.1,181.2 L 37.1,185.3 32.8,186.9 28.7,184.9 27.1,180.7" fill="black"/><path d="M 24,149 L 25.1,145.6 26.6,141.3 28.6,135.9 31.1,129.4 34.2,121.8 37.8,113 41.9,103.1 46.6,92.1 52,79.9 58.1,66.6 59.8,67.3 55.6,81.2 51.7,93.9 48.1,105.4 44.9,115.6 42.2,124.6 40,132.4 38.2,139 36.9,144.3 36.1,148.3 35.9,150.9" fill="black"/><path d="M 59,37 L 187,37 187,41 59,41" fill="black"/><path d="M 187,37 L 163,39 175,27" fill="black"/><path d="M 106.5,14 L 106.5,61.2 95.5,66.7 95.5,12" fill="black"/><path d="M 106.5,14 L 109.2,16 104.5,19" fill="black"/><path d="M 148.5,14 L 148.5,61.2 137.5,66.7 137.5,12" fill="black"/><path d="M 148.5,14 L 151.2,16 146.5,19" fill="black"/><path d="M 65,75 L 180,75 180,79 65,79" fill="black"/><path d="M 180,75 L 156,77 168,65" fill="black"/><path d="M 73,100 L 172,100 172,104 73,104" fill="black"/><path d="M 172,100 L 152,102 162,91" fill="black"/><path d="M 59,124 L 187,124 187,128 59,128" fill="black"/><path d="M 187,124 L 163,126 175,114" fill="black"/><path d="M 127,54 L 127,102 117,102 117,52" fill="black"/><path d="M 127,54 L 129.5,56 125,59" fill="black"/><path d="M 117,102 L 119,105 122,107 125,105 127,102" fill="black"/><path d="M 127,102 L 126,114.8 123.8,126.8 120.2,137.9 115.3,148.1 109,157.3 101.5,165.5 92.7,172.7 82.8,178.8 71.6,183.8 59.2,187.7 58.7,186.2 70.3,180.9 80.5,174.9 89.4,168.3 97,161 103.4,153.1 108.5,144.4 112.4,135 115.1,124.8 116.6,113.8 117,102" fill="black"/><path d="M 126.1,126.6 L 130,133.9 134.1,140.5 138.6,146.7 143.5,152.3 148.8,157.4 154.6,162 160.9,166.1 167.8,169.8 175.2,173 183.1,175.7 178.8,188.2 170.1,184.4 162.2,180.1 154.8,175.3 148.2,169.9 142.2,164 137,157.6 132.6,150.7 128.9,143.3 126.2,135.5 124.4,127.2" fill="black"/><path d="M 178.8,188.2 L 183.1,175.7 190.3,178.2" fill="black"/></svg>